<svg xmlns="http://www.w3.org/2000/svg" viewBox="0 0 24 24" fill="#ff7f00">
  <circle cx="12" cy="12" r="12" fill="#ff7f00"/>
  <path d="M15.5 10.5c.3-.8 0-1.4-.7-1.7l.5-2-.9-.2-.5 1.9c-.2-.1-.4-.1-.7-.2l.5-1.9-.9-.2-.5 2c-.2 0-.4-.1-.6-.1l0 0-.9-.2-.2.9s.7.1.7.1c.4.1.5.4.5.6l-.5 2.1c0 0 0 .1.1.1l-.1-.1-.7 2.8c-.1.2-.2.5-.7.4 0 0-.7-.1-.7-.1l-.3 1l1.2.3-.5 2.1.9.2.5-2c.2.1.5.1.7.2l-.5 2 .9.2.5-2.1c1.9.4 3.3.2 3.9-1.4.5-1.3 0-2-.7-2.5.5-.1.8-.4.9-1.1zm-1.6 2.3c-.3 1.4-2.6.6-3.3.4l.6-2.4c.7.2 3.1.6 2.7 2zm.3-2.3c-.3 1.2-2.2.6-2.8.4l.5-2.2c.6.1 2.6.4 2.3 1.8z" fill="white"/>
</svg>