<svg xmlns="http://www.w3.org/2000/svg" viewBox="0 0 24 24" fill="#ff7f00">
  <rect x="1" y="1" width="6" height="6" fill="#ff7f00"/>
  <rect x="17" y="1" width="6" height="6" fill="#ff7f00"/>
  <rect x="1" y="17" width="6" height="6" fill="#ff7f00"/>
  <rect x="3" y="3" width="2" height="2" fill="white"/>
  <rect x="19" y="3" width="2" height="2" fill="white"/>
  <rect x="3" y="19" width="2" height="2" fill="white"/>
  <rect x="9" y="1" width="2" height="2" fill="#ff7f00"/>
  <rect x="13" y="1" width="2" height="2" fill="#ff7f00"/>
  <rect x="9" y="5" width="6" height="2" fill="#ff7f00"/>
  <rect x="9" y="9" width="2" height="2" fill="#ff7f00"/>
  <rect x="13" y="9" width="2" height="2" fill="#ff7f00"/>
  <rect x="17" y="9" width="6" height="2" fill="#ff7f00"/>
  <rect x="1" y="9" width="2" height="2" fill="#ff7f00"/>
  <rect x="5" y="9" width="2" height="2" fill="#ff7f00"/>
  <rect x="9" y="13" width="6" height="2" fill="#ff7f00"/>
  <rect x="17" y="13" width="2" height="2" fill="#ff7f00"/>
  <rect x="21" y="13" width="2" height="2" fill="#ff7f00"/>
  <rect x="9" y="17" width="2" height="2" fill="#ff7f00"/>
  <rect x="13" y="17" width="2" height="6" fill="#ff7f00"/>
  <rect x="17" y="17" width="2" height="2" fill="#ff7f00"/>
  <rect x="21" y="17" width="2" height="6" fill="#ff7f00"/>
  <rect x="9" y="21" width="2" height="2" fill="#ff7f00"/>
  <rect x="17" y="21" width="2" height="2" fill="#ff7f00"/>
</svg>